<svg id="Group_63" data-name="Group 63" xmlns="http://www.w3.org/2000/svg" xmlns:xlink="http://www.w3.org/1999/xlink" width="26.19" height="23.833" viewBox="0 0 26.19 23.833">
  <defs>
    <clipPath id="clip-path">
      <rect id="Rectangle_59" data-name="Rectangle 59" width="26.19" height="23.833" transform="translate(0 0)" fill="#657e98"/>
    </clipPath>
  </defs>
  <g id="Group_61" data-name="Group 61" transform="translate(0 0)" clip-path="url(#clip-path)">
    <path id="Path_10" data-name="Path 10" d="M25.926,12.63,21,7.657V1.577a.327.327,0,0,0-.327-.327H18.309a.327.327,0,0,0-.327.327V4.608L13.59.177a.613.613,0,0,0-.869,0L.267,12.63A.912.912,0,0,0,1.2,14.141h0l2.6-.885v9.822a.75.75,0,0,0,.75.75h4.9a.75.75,0,0,0,.75-.75V15.621h5.927v7.457a.75.75,0,0,0,.75.75h4.9a.75.75,0,0,0,.75-.75V13.292l2.43.829a.912.912,0,0,0,.981-1.491" transform="translate(0 0.005)" fill="#657e98"/>
  </g>
</svg>
