<svg xmlns="http://www.w3.org/2000/svg" width="23.268" height="23.906" viewBox="0 0 23.268 23.906">
  <g id="Group_222" data-name="Group 222" transform="translate(-735.866 -299.732)">
    <path id="Path_11" data-name="Path 11" d="M13.289,18.04A4.309,4.309,0,1,1,17.6,13.73,4.314,4.314,0,0,1,13.289,18.04Z" transform="translate(734.211 297.954)" fill="none" stroke="#fff" stroke-linecap="round" stroke-linejoin="round" stroke-width="1.5"/>
    <g id="Group_221" data-name="Group 221" transform="translate(736.659 300.482)">
      <path id="Path_14" data-name="Path 14" d="M14,23.406H9.686a.431.431,0,0,1-.427-.378l-.337-2.721a8.462,8.462,0,0,1-2.641-1.519L3.753,19.856a.43.43,0,0,1-.541-.182l-2.155-3.74a.431.431,0,0,1,.115-.559l2.189-1.646a8.529,8.529,0,0,1,0-3.051L1.172,9.031a.432.432,0,0,1-.115-.56L3.212,4.732a.43.43,0,0,1,.541-.183L6.281,5.618A8.465,8.465,0,0,1,8.922,4.1l.337-2.721A.431.431,0,0,1,9.686,1H14a.43.43,0,0,1,.427.377L14.76,4.1A8.451,8.451,0,0,1,17.4,5.618L19.93,4.55a.431.431,0,0,1,.541.183l2.155,3.739a.432.432,0,0,1-.114.56l-2.188,1.646a8.63,8.63,0,0,1,0,3.051l2.188,1.646a.431.431,0,0,1,.114.559l-2.155,3.74a.431.431,0,0,1-.541.182L17.4,18.788a8.449,8.449,0,0,1-2.643,1.519l-.337,2.721A.43.43,0,0,1,14,23.406Z" transform="translate(-1 -1)" fill="none" stroke="#fff" stroke-linecap="round" stroke-linejoin="round" stroke-width="1.5"/>
    </g>
  </g>
</svg>
